<?xml version="1.0" encoding="utf-8"?>
<!-- Generator: Adobe Illustrator 22.0.1, SVG Export Plug-In . SVG Version: 6.00 Build 0)  -->
<svg version="1.1" id="Layer_1" xmlns="http://www.w3.org/2000/svg" xmlns:xlink="http://www.w3.org/1999/xlink" x="0px" y="0px"
	 viewBox="0 0 100 77" style="enable-background:new 0 0 100 77;" xml:space="preserve">
<style type="text/css">
	.st0{fill:none;stroke:#000000;}
	.st1{fill:#CFB87C;}
	.st2{fill:#FFFFFF;}
</style>

<polygon class="st1" points="11.4,0 1,10.4 1,46.4 11.4,56.8 22.9,56.8 22.9,65.6 33.4,76 63.9,76 74.4,65.6 74.4,37.7 79.8,37.7 
	79.8,19.2 57.9,19.2 57.9,10.4 47.5,0 "/>
<polygon points="47.1,1.1 56.9,10.9 56.9,20.3 78.6,20.3 78.6,36.6 73.3,36.6 73.3,65.2 63.4,75 33.8,75 23.9,65.2 23.9,55.7 
	11.9,55.7 2.1,46 2.1,10.9 11.9,1.1 "/>
<polygon class="st2" points="13,53.1 26.7,53.1 26.7,64 35,72.2 62.3,72.2 70.5,64 70.5,34 76,34 76,22.9 59.5,22.9 59.5,61.3 
	37.6,61.3 37.6,53.1 45.9,53.1 54.1,44.8 54.1,34 43.2,34 43.2,42 37.6,42 37.6,22.9 21.2,22.9 21.2,34 26.7,34 26.7,42 15.8,42 
	15.8,14.7 43.2,14.7 43.2,22.9 54.1,22.9 54.1,12 45.9,3.8 13,3.8 4.8,12 4.8,44.8 "/>
<polygon class="st1" points="36.4,51.7 45.4,51.7 52.7,44.3 52.7,35.3 44.4,35.3 44.4,43.4 36.4,43.4 36.4,24.3 22.6,24.3 
	22.6,32.6 28.1,32.6 28.1,43.4 14.4,43.4 14.4,13.4 44.4,13.4 44.4,21.6 52.7,21.6 52.7,12.5 45.4,5.1 13.5,5.1 6.1,12.5 6.1,44.3 
	13.5,51.7 28.1,51.7 28.1,63.5 35.5,70.9 61.7,70.9 69.3,63.5 69.3,32.6 74.6,32.6 74.6,24.3 60.8,24.3 60.8,62.6 36.4,62.6 "/>
</svg>
